<svg width="17" height="17" viewBox="0 0 17 17" fill="none" xmlns="http://www.w3.org/2000/svg">
<path d="M11.2361 8.75725L12.6511 10.1713L15.4791 7.34325C16.2292 6.59309 16.6507 5.57564 16.6507 4.51475C16.6507 3.45386 16.2292 2.43642 15.4791 1.68625C15.1076 1.31481 14.6667 1.02016 14.1813 0.819138C13.696 0.618114 13.1759 0.514648 12.6506 0.514648C11.5897 0.514648 10.5722 0.936087 9.82207 1.68625L6.99407 4.51425L8.40807 5.92925L11.2361 3.10025C11.6112 2.7251 12.12 2.51435 12.6506 2.51435C13.1811 2.51435 13.6899 2.7251 14.0651 3.10025C14.4402 3.4754 14.651 3.98421 14.651 4.51475C14.651 5.04529 14.4402 5.5541 14.0651 5.92925L11.2361 8.75725ZM8.40807 11.5863L9.82207 13.0003L6.99407 15.8283C6.24391 16.5784 5.22646 16.9999 4.16557 16.9999C3.10468 16.9999 2.08723 16.5784 1.33707 15.8283C0.586904 15.0781 0.165466 14.0606 0.165466 12.9998C0.165466 11.9389 0.586904 10.9214 1.33707 10.1713L4.16507 7.34325L5.58007 8.75725L2.75107 11.5863C2.37605 11.9614 2.16542 12.4702 2.16552 13.0006C2.16561 13.5311 2.37642 14.0397 2.75157 14.4148C3.12672 14.7898 3.63548 15.0004 4.16592 15.0003C4.69637 15.0002 5.20505 14.7894 5.58007 14.4143L8.40807 11.5853V11.5863Z" fill="black"/>
<path d="M11.2371 7.34282C11.4247 7.15518 11.5301 6.90069 11.5301 6.63532C11.5301 6.36996 11.4247 6.11546 11.2371 5.92782C11.0494 5.74018 10.7949 5.63477 10.5296 5.63477C10.2642 5.63477 10.0097 5.74018 9.82207 5.92782L5.58007 10.1708C5.48456 10.2631 5.40838 10.3734 5.35597 10.4954C5.30356 10.6174 5.27597 10.7486 5.27482 10.8814C5.27366 11.0142 5.29897 11.1459 5.34925 11.2688C5.39953 11.3917 5.47378 11.5033 5.56767 11.5972C5.66157 11.6911 5.77322 11.7654 5.89611 11.8156C6.01901 11.8659 6.15069 11.8912 6.28347 11.8901C6.41625 11.8889 6.54747 11.8613 6.66947 11.8089C6.79148 11.7565 6.90182 11.6803 6.99407 11.5848L11.2361 7.34282H11.2371Z" fill="black"/>
</svg>
